<?xml version="1.0" encoding="UTF-8"?><svg id="Layer_2" xmlns="http://www.w3.org/2000/svg" xmlns:xlink="http://www.w3.org/1999/xlink" viewBox="0 0 117.57 142.2"><defs><style>.cls-1{fill:url(#New_Gradient_Swatch);}.cls-2{fill:url(#New_Gradient_Swatch-2);}</style><radialGradient id="New_Gradient_Swatch" cx="-26.13" cy="183.25" fx="-26.13" fy="183.25" r="252.59" gradientTransform="matrix(1, 0, 0, 1, 0, 0)" gradientUnits="userSpaceOnUse"><stop offset="0" stop-color="#43285b"/><stop offset=".84" stop-color="#1d647b"/></radialGradient><radialGradient id="New_Gradient_Swatch-2" cy="183.25" fy="183.25" r="252.59" xlink:href="#New_Gradient_Swatch"/></defs><g id="Layer_1-2"><g><path class="cls-1" d="M103.87,0h0c-7.57,0-13.7,6.13-13.7,13.7V30.71h0v.46c-.03,1.41-.41,5.28-3.56,7.83-.56,.45-2.37,1.87-5.11,2-.02,0-.06,0-.09,0h-.37c-1.01-.02-3.35-.28-5.43-2-2.32-1.92-2.97-4.58-3.12-6.37v-15.52c0-7.57-6.13-13.7-13.7-13.7h0c-7.57,0-13.7,6.13-13.7,13.7v1.1h0c0,.39-.24,6.53-4.47,8.8-1.63,.87-3.49,.98-4,1-.5,.02-2.94,.14-5-1-2.74-1.52-4.3-4.98-4.21-8.79v-4.51C27.4,6.13,21.27,0,13.7,0h0C6.13,0,0,6.13,0,13.7V93.03c0,7.57,6.13,13.7,13.7,13.7h0c7.57,0,13.7-6.13,13.7-13.7v-26.71c.18-1.46,.58-5.03,3.21-7.33,2.01-1.76,4.41-1.97,5-2,3.21-.19,5.44,1.55,6,2,3.37,2.71,3.47,6.84,3.47,7.44h0v17.59c0,7.57,6.13,13.7,13.7,13.7h0c7.57,0,13.7-6.13,13.7-13.7v-3.47c0-.61,.18-10.43,9.01-10.43,7.92,0,8.62,7.9,8.67,9.96v48.39c0,7.57,6.13,13.7,13.7,13.7h0c7.57,0,13.7-6.13,13.7-13.7V13.7c0-7.57-6.13-13.7-13.7-13.7Z"/><path class="cls-2" d="M14,115.52c-7.37,0-13.34,5.97-13.34,13.34s5.97,13.34,13.34,13.34,13.34-5.97,13.34-13.34-5.97-13.34-13.34-13.34Z"/></g></g></svg>